<svg width="16" height="16" viewBox="0 0 16 16" fill="none" xmlns="http://www.w3.org/2000/svg">
<path d="M7.99609 1.83325C8.8058 1.83322 9.60738 1.99316 10.3555 2.30298C11.1036 2.61283 11.7838 3.06636 12.3564 3.63892C12.9291 4.21155 13.3835 4.89169 13.6934 5.63989C14.0032 6.38808 14.1622 7.19043 14.1621 8.00024C14.162 9.21978 13.8006 10.412 13.123 11.426C12.4454 12.4401 11.4822 13.2308 10.3555 13.6975C9.22881 14.1641 7.98901 14.286 6.79297 14.0481C5.5969 13.8102 4.49812 13.2228 3.63574 12.3606C2.77339 11.4982 2.18525 10.3995 1.94727 9.20337C1.70932 8.00715 1.83209 6.7667 2.29883 5.63989C2.76555 4.51325 3.5554 3.54986 4.56934 2.87231C5.58344 2.19471 6.77644 1.83325 7.99609 1.83325ZM11.0557 4.19067C10.9275 4.20052 10.812 4.23134 10.7383 4.25513C10.6993 4.2677 10.6665 4.2809 10.6426 4.29028C10.6308 4.29492 10.6209 4.2988 10.6133 4.302L3.4707 7.13892C3.46677 7.14041 3.46274 7.14291 3.45801 7.14478C3.44154 7.15127 3.41957 7.15964 3.39453 7.17114C3.34617 7.19336 3.27703 7.22865 3.20508 7.27856C3.09757 7.35318 2.79756 7.59241 2.84863 7.99927C2.88705 8.31183 3.09698 8.4992 3.21387 8.58325C3.2794 8.63035 3.34096 8.66418 3.38574 8.68579C3.40865 8.69684 3.42883 8.70479 3.44434 8.71118L3.47168 8.7229C3.4728 8.72332 3.47461 8.72352 3.47559 8.72388H3.47754V8.72485L3.48535 8.72681L5.28223 9.33911L5.51074 9.41724L5.71387 9.28638L6.03711 9.07739L6.01172 9.31274L5.78906 11.3049L5.74609 11.6897L6.10742 11.8274C6.21707 11.8693 6.33585 11.8833 6.45215 11.8674C6.56844 11.8515 6.67903 11.8063 6.77344 11.7366L6.79492 11.7209L6.81543 11.7024L7.66504 10.9172L9.14062 12.0637L9.16992 12.0862L9.20117 12.1047C9.32149 12.1728 9.45509 12.2145 9.59277 12.2268C9.73054 12.239 9.86949 12.2208 10 12.175C10.1304 12.1293 10.2497 12.0567 10.3496 11.9612C10.4494 11.8657 10.5276 11.7495 10.5791 11.6213L10.5967 11.5774L10.6064 11.5305L11.8789 5.03345L11.8877 4.9856V4.93677C11.8876 4.70496 11.7995 4.46167 11.5713 4.31079C11.3794 4.184 11.1718 4.18178 11.0557 4.19067Z" fill="#94A3B8" stroke="#94A3B8"/>
</svg>
