<svg width="20" height="20" viewBox="0 0 20 20" fill="none" xmlns="http://www.w3.org/2000/svg">
<path fill-rule="evenodd" clip-rule="evenodd" d="M6.29959 3.33325C4.15897 3.33325 2.41626 5.07729 2.41626 7.24158C2.41626 9.90877 3.64694 12.0494 5.20508 13.6459C6.77225 15.2516 8.62454 16.2561 9.72523 16.6318L9.73256 16.6343L9.73254 16.6343C9.76897 16.6472 9.86571 16.6666 9.99959 16.6666C10.1335 16.6666 10.2302 16.6472 10.2666 16.6343L10.2739 16.6318L10.274 16.6318C11.3746 16.2561 13.2269 15.2516 14.7941 13.6459C16.3522 12.0494 17.5829 9.90877 17.5829 7.24158C17.5829 5.07729 15.8402 3.33325 13.6996 3.33325C12.4391 3.33325 11.3083 3.9457 10.6017 4.89708C10.4602 5.0876 10.2369 5.19992 9.99959 5.19992C9.76228 5.19992 9.53897 5.0876 9.39748 4.89708C8.69048 3.94508 7.56773 3.33325 6.29959 3.33325ZM0.91626 7.24158C0.91626 4.25588 3.32355 1.83325 6.29959 1.83325C7.73707 1.83325 9.03886 2.40014 9.99994 3.32061C10.9632 2.39983 12.2694 1.83325 13.6996 1.83325C16.6756 1.83325 19.0829 4.25588 19.0829 7.24158C19.0829 10.4077 17.6136 12.9046 15.8676 14.6936C14.132 16.4718 12.0779 17.6003 10.7617 18.0503C10.5159 18.1363 10.2394 18.1666 9.99959 18.1666C9.75981 18.1666 9.48329 18.1363 9.23742 18.0503C7.92131 17.6003 5.86719 16.4718 4.13161 14.6936C2.38558 12.9046 0.91626 10.4077 0.91626 7.24158Z" fill="#0F172A"/>
</svg>
