<svg width="16" height="16" viewBox="0 0 16 16" fill="none" xmlns="http://www.w3.org/2000/svg">
<g clip-path="url(#clip0_6101_3662)">
<path fill-rule="evenodd" clip-rule="evenodd" d="M3.5256 2.05894L1.01034 7.34224C1.00077 7.36189 0.997736 7.38409 1.00169 7.40558C1.00563 7.42708 1.01636 7.44675 1.03229 7.46172L7.82539 13.9712C7.84469 13.9897 7.87039 14 7.89712 14C7.92386 14 7.94956 13.9897 7.96885 13.9712L14.762 7.46213C14.7779 7.44716 14.7886 7.42749 14.7926 7.40599C14.7965 7.38449 14.7935 7.3623 14.7839 7.34264L12.2686 2.05934C12.2605 2.0416 12.2475 2.02657 12.231 2.01605C12.2146 2.00552 12.1955 1.99996 12.176 2.00001H3.61907C3.59947 1.99976 3.58021 2.0052 3.56362 2.01565C3.54704 2.02611 3.53383 2.04114 3.5256 2.05894Z" fill="#50AF95"/>
<path fill-rule="evenodd" clip-rule="evenodd" d="M8.7701 7.88482C8.72133 7.88847 8.46936 7.90351 7.9073 7.90351C7.46025 7.90351 7.14284 7.8901 7.03149 7.88482C5.30385 7.80882 4.01431 7.50808 4.01431 7.148C4.01431 6.78792 5.30385 6.48759 7.03149 6.41037V7.58529C7.14447 7.59342 7.46797 7.61252 7.91502 7.61252C8.45147 7.61252 8.72011 7.59017 8.76847 7.5857V6.41118C10.4925 6.48799 11.7791 6.78873 11.7791 7.148C11.7791 7.50726 10.4929 7.808 8.76847 7.88441L8.7701 7.88482ZM8.7701 6.28967V5.23829H11.176V3.63501H4.62555V5.23829H7.03108V6.28926C5.07585 6.37907 3.60547 6.76638 3.60547 7.2305C3.60547 7.69462 5.07585 8.08152 7.03108 8.17174V11.5409H8.76969V8.17052C10.7204 8.0807 12.1884 7.6938 12.1884 7.23009C12.1884 6.76638 10.7217 6.37948 8.76969 6.28926L8.7701 6.28967Z" fill="white"/>
</g>
<defs>
<clipPath id="clip0_6101_3662">
<rect width="13.7947" height="12" fill="white" transform="translate(1 2)"/>
</clipPath>
</defs>
</svg>
